<?xml version="1.0" encoding="UTF-8"?>
<svg id="Calque_1" data-name="Calque 1" xmlns="http://www.w3.org/2000/svg" viewBox="0 0 1500 800">
  <defs>
    <style>
      .cls-1 {
        opacity: .14;
      }

      .cls-2 {
        fill: #1a1f30;
      }

      .cls-2, .cls-3 {
        stroke-width: 0px;
      }

      .cls-3 {
        fill: #fff;
      }
    </style>
  </defs>
  <rect class="cls-2" x="-281.19" y="-103.94" width="2081.51" height="985.24"/>
  <g class="cls-1">
    <g>
      <path class="cls-3" d="M104.45,260.96c-58.19-26.69-121.03-32.77-183.87-40.88-30.41-4.05-56.76-23.31-68.92-50.68-28.38-66.89-11.15-139.87-6.08-209.8,1.01-18.24,6.08-40.54,24.32-47.64,73.99-29.39,157.1,11.15,223.99,46.62C169.91-.87,166.87,95.41,182.27,172.33c13,70.28-24.36,108.11-77.83,88.62ZM-80.15-54.35C-121.99-58.65-126.04-1.89-125.03,27.5c0,42.57-17.23,109.46,28.38,124.66,75,26.35,152.03,49.66,229.06,59.8,24.32-35.47,19.26-89.19,10.14-132.77-8.11-33.45-27.37-60.81-57.77-81.08C59.43-19.12,30.04-20.13,3.57-31.89c-40.41-11.02-83.72-22.45-83.72-22.45Z"/>
      <path class="cls-3" d="M-42.25,129.81c-25.88-6.26-44.05-42.25-42.77-80.58S-64.3-14.65-40.08-7.84C-15.87-1.03,5.28,35.67,5.33,72.1c.77,39.29-21.7,63.97-47.57,57.72ZM-38.45,42.92c-6.31-1.75-11.5,4.75-11.69,14.46-.19,9.71,4.77,18.99,11.19,20.71,6.42,1.72,11.81-4.72,11.9-14.4.08-9.68-5.08-19.02-11.39-20.77Z"/>
      <path class="cls-3" d="M63.45,160.52c-26.38-8.82-46.8-45.94-47.52-84.46S32.27,14.27,55.33,22.12c23.04,7.85,45.23,45.8,49.37,84.69,4.15,38.89-14.86,62.54-41.25,53.71ZM59.74,73.72c-6.09-2.08-10.61,4.15-10.16,13.85.46,9.71,5.94,19.34,12.27,21.5,6.33,2.16,10.93-4.03,10.22-13.82-.71-9.79-6.24-19.45-12.33-21.53Z"/>
    </g>
    <g>
      <path class="cls-3" d="M415.38,80.56c10.03-2.29,25.32-1.92,28.41-6.23,3.97-5.55-1.01-15.1-2.22-23.35-9.34,2.15-19.33,2.31-29.01,3.94-2.46-17.94-.39-58.13-37.64-59.5-52.5-1.92-39.42,47.44-4.16,81.28,5.98,5.74,19.22,8.72,27.71,6.45-.57,7.95-1.94,16.25,19.45,18.28l-2.55-20.86ZM395.01,56.04c.07.85-.24,1.54-.79,1.75-1.75.65-6.29,1.55-15.69-1-13.96-3.79-15.29-23.09-15.29-23.09-.91-27.23,29.74-19.47,30.79,7.67l.98,14.67Z"/>
      <g>
        <path class="cls-3" d="M536.37,310.77c-84.61,9.85-176.84-19.54-215.35-99.61-18.24-37.5-27.37-90.2-2.03-115.54,35.47-35.47,103.38,2.03,154.06,17.23,46.62,13.18,53.72,61.83,63.85,103.38,1.01,5.07,3.04,10.14,6.26,14.82,20.14,43.55,20.24,80.45-6.79,79.72ZM350.29,115.48c-27.18-.2-21.68,17.73-18.46,30.92,9.32,38.22-11.11,75.49,68.99,114.49,26.21,12.62,95.25,18.37,109.6,9.65,45.6-27.72-1.72-78.14-24.75-123.26-1.8-3.67-7.9-10.36-18.53-11.44l-116.85-20.37Z"/>
        <path class="cls-3" d="M412.6,239.56c-16.19-1.86-38.45-25.92-46.43-52.14-9.36-27.09-1.34-45.47,14.99-42.56,16.33,2.91,34.75,25.19,43.3,50.8,8.55,25.6,4.34,45.76-11.85,43.89ZM390.36,179.21c-6.69,5.05-6.52,17.26,10.04,24.2,2.15-3.32,1.99-6.96,1.39-11.06-2.24-6.65-7.29-12.51-11.43-13.14Z"/>
        <path class="cls-3" d="M477.83,246.32c-16-1.43-38.1-24.26-46.63-49.76-8.53-25.51-.37-43.4,15.76-41.15,16.13,2.25,34.12,23.18,42.51,47.84,8.39,24.67,4.36,44.49-11.64,43.06ZM456.08,188.41c-9.39,5.52-1.28,19.71,4.8,22.75,7.09,3.04,9.12-5.07,6.43-10.36-2.16-6.37-7.12-11.89-11.23-12.39Z"/>
      </g>
    </g>
    <g>
      <path class="cls-3" d="M301.33,399.43c13.92-.62,30.84-1.47,32.57-6.09,2.73-8.73-13.76-22.61-21.12-34.13-11.46.89-18.27,4.27-30.09,4.23-16.75-27.84-20.15-58.02-74.75-89.75-53.68,3.34-20.71,56.72,8.03,94.81,10.05,13.31,38.44,31.17,62.56,31.43,1.53,9.96,7.07,22.95,36.57,27.3l-13.77-27.8ZM261.65,363.75c-1.43,5.11-22.97-.15-29.18-6.05-19.75-18.5-43.51-52.7-8.74-45.96,15.03,3.16,24.24,21.66,28.52,31.68l9.4,20.33Z"/>
      <g>
        <path class="cls-3" d="M464.68,659.04c-40.54-15.25-81.76-29.67-123.56-44.06-41.89-14.37-83.95-28.82-126.52-44.02-45.61-17.23-116.56-22.3-123.65-78.04-4.05-35.47,11.15-75,37.5-100.34,21.28-21.28,54.73-12.16,83.11-5.07,47.13,13.18,94.01,25.34,139.23,41.94,45.23,16.6,88.81,37.63,129.35,68.54,39.23,31.49,56.19,76.4,80.37,116.07,20.94,46.62-24.3,66.55-95.83,44.98ZM204.59,419.65c-63.45-15.23-60.61,39.23-68.02,74.84-3.05,14.65,19.03,28.41,35.71,34.41,44.68,16.08,91.4,32.98,141.91,51.07,50.48,18.04,103.8,35.99,160.25,53.8,37.61,11.87,54.75-9.09,43.3-28.98-25.7-41.01-27.94-87.3-112.08-122.57l-201.07-62.56Z"/>
        <path class="cls-3" d="M248.95,536.94c-37.41-13.61-60.15-38.95-55.49-58.88,4.66-19.93,30.35-28.74,61.1-17.94,30.76,10.8,60.72,39.6,62.81,62.37,2.08,22.77-30.98,28.05-68.41,14.45ZM256.76,491.36c-8.54-3.06-15.77-1.15-16.4,4.13-.63,5.28,5.93,12.1,14.91,15.36,8.98,3.25,16.69,1.57,16.87-3.9.19-5.47-6.84-12.53-15.38-15.59Z"/>
        <path class="cls-3" d="M403.27,590.58c-38.21-12.29-68.55-39.99-71.58-63.2-3.04-23.22,15.66-36.43,45.04-28.01,29.42,8.42,65.2,38.08,77.19,65.16,11.72,27.11-12.44,38.34-50.64,26.05ZM391.48,536.43c-8.32-2.5-13.6.65-11.99,6.96,1.61,6.3,9.99,13.61,18.9,16.36,8.91,2.76,14.54-.27,12.35-6.83s-10.93-13.99-19.25-16.49Z"/>
      </g>
    </g>
    <g>
      <path class="cls-3" d="M897.44,118.5c11.39-10.74,28.65-21.87,29.67-33.02,0-13.18-14.19-29.39-24.32-42.57-9.12,10.14-20.27,18.24-29.39,28.38-16.22-37.5-35.47-114.53-82.1-92.23-47.64,22.3-19.25,94.79,10.96,130.65,17.29,19.79,47.25,38.84,74.94,23.76,4.65,8.92,7.87,20.7,15.95,24.75,6.06,3.04,16.95-.65,26.71-1.61l-22.42-38.11ZM852.62,83.95c.5,10.65-14.7,11.66-22.81,9.64-17.23-3.04-24.32-20.27-30.48-34.44-14.28-51.62,25.64-54.97,41.92-2.86l11.36,27.67Z"/>
      <g>
        <path class="cls-3" d="M1221.42,572.56c-86.54,91.65-172.69-40.11-237.55-95.86-36.49-31.42-72.97-58.79-108.1-88.95-38.92-32.08-75.35-70.17-107.79-114.77-13.18-18.24-18.24-39.53-17.23-60.81,0-20.27,5.07-48.65,28.38-52.7,73.99-12.16,142.91-15.2,216.9-26.35,58.79-9.12,102.34,35.68,144.01,76.01,66.81,62.85,126.6,143.93,117.36,240.02-2.83,48.89-16.53,94.77-35.98,123.42ZM823.89,207.58c-21.44-2.5-27.52,20.81-26.51,37.02,3.04,27.37,21.28,47.64,40.54,64.87,38.51,29.39,64.87,71.96,107.43,95.27,79.06,43.58,185.48,141.89,270.61,67.91,20.27-110.48-52.7-226.02-148.99-276.63-45.61-19.32-91.22,10.07-136.77,11.48-52.3,1.44-106.33.08-106.33.08Z"/>
        <path class="cls-3" d="M1044.91,408.23c-31.08-5.93-98.51-47.08-143.89-89.41-37.36-40.47-35.41-71.94-3.24-71.07,31.79.18,87.32,32,134.74,73.38,37.52,49.08,44.1,93.15,12.39,87.1ZM945.51,301.57c-8.87-.16-7.61,8.07,3.58,18.51,10.97,10.52,27.83,19.44,36.89,19.69,9.06.26,6.94-8.49-4.16-19.1-11.46-10.48-27.44-18.94-36.31-19.1Z"/>
        <path class="cls-3" d="M1155.48,430.89c-23.88-3.14-72.87-59.1-113.78-110-43.15-41.76-49.96-76.25-21.48-80.35,26.37-6,81.06,21.94,121.22,71.21,32.81,57.81,35.83,116.86,14.04,119.13ZM1077.06,297.12c-7.19.8-4.48,10.89,5.85,23.56,10.33,12.67,24.02,23.83,30.79,23.65,6.78-.19,4.53-12.16-5.39-25.45-9.92-13.29-24.07-22.55-31.26-21.76Z"/>
      </g>
    </g>
    <path class="cls-3" d="M1504.22-6.66c-55.14-1.1-108.86,7-163.59,9.03-14.19,1.01-28.38,0-42.57-2.03-25.34-3.04-48.65-37.5-30.41-55.74,52.7-53.72,145.95-44.6,217.91-45.61,36.49,0,85.14,22.3,81.92,67.31,6.09,23.07-21.84,34.45-63.27,27.04ZM1312.52-71.2c-11.75,3.93-30.27,10.7-26.84,27.09,2.55,11.09,10.55,26.41,21.75,28.21,37.25,4.02,72.58,1.4,107.39-1.94,34.82-3.35,69.5-8.14,105.02-7.65,5.18.64,12.39-.77,12.64-9.21,3.02-44.76-29.2-53.43-53.05-53.84l-166.92,17.35Z"/>
    <g>
      <path class="cls-3" d="M626.87,407.74c19.24-15.19-4.22-23.69-17.05-34.56-3.1,4.25-5.47,7.81-10.05,11.76-20.59-14.98-31.8-39.02-74.14-46.3-8.59,27.42,28.03,66.31,88.94,81.2,2.86.53,5.94-2.17,6.82-4.46,10.5,4.3,9.68,17.33,27.9,10.89l-22.41-18.53ZM593.27,391.61c.88.77,1.42,1.51,1.38,1.88-.12,1.16-1.19,3.47-7.71,4.18-9.68,1.05-29.1-16.75-29.1-16.75-26.22-25.47-5.87-27.53,20.55-2.63l14.87,13.33Z"/>
      <g>
        <path class="cls-3" d="M838.81,638.86c-31.92,1.05-69.42,10.17-92.73-17.19-36.49-43.58-79.06-75-115.54-117.57-15.2-17.23-48.65-43.58-28.38-60.81,81.08-70.95,181.42,13.18,220.53,92.24,25.6,56.68,29.83,105.19,16.12,103.33ZM632.2,462.21c26.72,72.29,103.75,158.44,187.87,129.05,8.11-70.95-49.66-123.65-111.9-146.46l-75.98,17.41Z"/>
        <path class="cls-3" d="M754.76,568.25c-33.96-11.12-69.21-43.12-85.13-85.08,27.03-9.61,48.24,19.9,66.49,34.29,20.96,25.54,28.63,49.25,18.65,50.79ZM706.56,510.57c-1.02,9.74,12.16,20.89,22.29,21.9,0-5.07-5.07-8.11-6.91-11.93-5.76-6.19-12.72-10.61-15.38-9.98Z"/>
        <path class="cls-3" d="M793.51,562.98c-42.59-21.93-77.94-60.55-79.02-93.05,33.87,3.26,44.29,25.45,61.48,39.55,19.77,27.75,26.66,52.55,17.54,53.5ZM747.69,501.13c-.6,9.34,8.93,17.48,20.09,23.65,1.74-5.56-3.23-8.43-5.25-12.99-5.58-6.46-12.29-11.19-14.85-10.66Z"/>
      </g>
    </g>
    <g>
      <path class="cls-3" d="M1320.55,662.68c16.19-3.97,46.65-1.6,36.96-17.22-10.48,2.43-21.22,4.12-31.57,6.33,2.73-5.06,5.74-14.04-7.94-19.73-25.69-13.36-41.04-5.25-50.97,1.57-7.6,5.22-22.76,10.1-8.87,23.31,10.84,10.32,28.37,7.79,40.58,8.19-2.5,1.08-2.87,4.47-5.35,5.56,7.47.78,13.14-.11,20.74.55l6.43-8.56ZM1305.76,653.76c-7.73,1.32-21.46,3.86-27.06-2.62-9.16-10.62,7.34-17.77,26.78-10.86,4.81,1.88,3.13,4.9,3.47,7.18l-3.19,6.3Z"/>
      <g>
        <path class="cls-3" d="M1270.81,742.03c-61.4-11.58-129.3-13.61-183.02-50.1,65.88-65.88,168.25-19.26,249.33-22.3,18.24-1.01,36.49,0,54.73,2.03,7.09,1.01,14.19,9.12,12.16,17.23-3.04,13.18-18.24,16.22-25.42,27.77-22.33,16.79-71.62,28.42-107.78,25.37ZM1216.84,671.36c-41.18-7.85-77.64-.78-94.39,23.01,42.1,14.96,101.1,33.56,152.16,36.57,55.52,1.46,99.68-10.39,96.56-47.57-5.3-.65-9.89-1.81-14.92-1.51l-139.41-10.49Z"/>
        <path class="cls-3" d="M1188.23,706.77c-20.86-4.76-26.05-13.76-12.27-19.41,13.8-5.66,40.71-7.16,60.86-3.89,20.14,3.26,26.84,11.38,13.76,18.54-13.08,7.17-41.49,9.52-62.35,4.76ZM1219.89,692.99c-6.14.7-17-3.11-16.94,4.14,8.76,3.79,15.44,2.39,20.29.65,3.43-1.68,1.9-3.82-3.35-4.79Z"/>
        <path class="cls-3" d="M1272.18,720.69c-20.66-2.17-26.1-10.24-13.12-17.59,12.98-7.35,38.5-12.63,58.02-12.09,19.52.54,26.96,8.01,15.11,17.01-11.85,9-39.35,14.84-60,12.67ZM1301.99,702.94c-8.85-.2-16.4.89-16.41,6.21,9.96,2.97,15.53.14,20.05-1.84,3.16-2.14,1.49-4.1-3.63-4.37Z"/>
      </g>
    </g>
    <g>
      <path class="cls-3" d="M1234.69,116.21c2.99-9.23,9.93-19.13,6.45-26.34-8.69-18.02-16.87-.57-20.24,14.3-12.86-15.78-40.02-23.32-44.34,1.62-4.35,22.96,15.22,45.7,35.82,47.95,11.06,1.07,17.13-10.11,18.63-22.22,2.69,1.68,6.16,5.83,7.98,6.23,3.67-.3,4.08-8.2,7.09-11.66l-11.39-9.87ZM1216.18,118.59c1.81,12.75-8.88,22.06-18.09,14.15-7.45-6.39-11.98-17.63-5.04-24.43,3.96-3.89,11.6-1.95,15,3.1l8.13,7.18Z"/>
      <g>
        <path class="cls-3" d="M1369.38,194.9c-23.68,36.53-31.79,100.38-71.31,103.42-39.53,3.04-79.06-65.88-76.02-111.49,3.04-36.49,22.3-73.99,52.7-97.3,30.41-23.31,63.85,13.18,84.34,34.99,22.56,23.79,26.29,55.27,10.29,70.38ZM1238.85,191.82c-4.44,14.85,4.01,33.81,13.08,42.59,15.48,18.02,31.29,57.99,48.76,36.8,23.48-28.92,38.36-67.45,55.92-103.68,2.57-6.9-.37-16.63-4.02-21.15-19.55-24.43-47.5-57.64-71.45-37.3l-42.29,82.74Z"/>
        <path class="cls-3" d="M1303.39,230.15c-5.19,13.59-18.48,14.16-30.51.95-12.04-13.2-18.9-34.08-14.25-46.56,4.65-12.47,19.32-12.85,31.91-.78,12.59,12.07,18.04,32.8,12.85,46.38ZM1275.58,200.98c-1.84,6.12,2.22,16.26,9.31,13.22,5.07-2.03,3.04-9.12-1.34-13.48-3.18-3.16-6.78-3.04-7.97.26Z"/>
        <path class="cls-3" d="M1327.85,179.83c-7.13,11.18-22.33,10.85-34.95-1.15-12.62-12-18.13-30.86-11.13-41.9,7-11.05,23.82-10.34,36.6,1.5,12.77,11.83,16.64,30.35,9.49,41.55ZM1298.57,151.9c-1.52,6.56,2.53,14.66,9.63,12.64,4.05-2.03,4.05-9.12-.46-12.34-3.26-3-7.4-3.14-9.17-.29Z"/>
      </g>
    </g>
    <g>
      <path class="cls-3" d="M213.87,668.57c2.99-9.23,9.93-19.13,6.45-26.34-8.69-18.02-16.87-.57-20.24,14.3-12.86-15.78-40.02-23.32-44.34,1.62-4.35,22.96,15.22,45.7,35.82,47.95,11.06,1.07,17.13-10.11,18.63-22.22,2.69,1.68,6.16,5.83,7.98,6.23,3.67-.3,4.08-8.2,7.09-11.66l-11.39-9.87ZM195.36,670.94c1.81,12.75-8.88,22.06-18.09,14.15-7.45-6.39-11.98-17.63-5.04-24.43,3.96-3.89,11.6-1.95,15,3.1l8.13,7.18Z"/>
      <g>
        <path class="cls-3" d="M348.56,747.26c-23.68,36.53-31.79,100.38-71.31,103.42-39.53,3.04-79.06-65.88-76.02-111.49,3.04-36.49,22.3-73.99,52.7-97.3,30.41-23.31,63.85,13.18,84.34,34.99,22.56,23.79,26.29,55.27,10.29,70.38ZM218.03,744.18c-4.44,14.85,4.01,33.81,13.08,42.59,15.48,18.02,31.29,57.99,48.76,36.8,23.48-28.92,38.36-67.45,55.92-103.68,2.57-6.9-.37-16.63-4.02-21.15-19.55-24.43-47.5-57.64-71.45-37.3l-42.29,82.74Z"/>
        <path class="cls-3" d="M282.57,782.5c-5.19,13.59-18.48,14.16-30.51.95-12.04-13.2-18.9-34.08-14.25-46.56,4.65-12.47,19.32-12.85,31.91-.78,12.59,12.07,18.04,32.8,12.85,46.38ZM254.76,753.33c-1.84,6.12,2.22,16.26,9.31,13.22,5.07-2.03,3.04-9.12-1.34-13.48-3.18-3.16-6.78-3.04-7.97.26Z"/>
        <path class="cls-3" d="M307.03,732.18c-7.13,11.18-22.33,10.85-34.95-1.15-12.62-12-18.13-30.86-11.13-41.9,7-11.05,23.82-10.34,36.6,1.5,12.77,11.83,16.64,30.35,9.49,41.55ZM277.75,704.25c-1.52,6.56,2.53,14.66,9.63,12.64,4.05-2.03,4.05-9.12-.46-12.34-3.26-3-7.4-3.14-9.17-.29Z"/>
      </g>
    </g>
    <g>
      <path class="cls-3" d="M674.86,116.78c-40.66-2.92-96.4,2.15-113.63-43.46-10.14-27.37-12.16-77.03,19.26-86.15,30.41-9.12,71.96-10.14,96.29,15.2,17.23,18.24,14.19,44.6,20.5,68.27,5.62,26.81-4.25,47.44-22.41,46.14ZM590.31,4.04c-12.69-.61-17.74,12.65-16.74,21.05,1.67,21.96-11.61,48.44,18.8,59.43,27.86,8.82,67.81,22.57,84.56,5.24,16.59-19.25,8.14-63.58-18.58-80.31l-68.03-5.41Z"/>
      <path class="cls-3" d="M611.03,75.55c-10.58-1.38-20.17-14.73-21-29.66-.83-14.93,6.85-26.12,16.76-25.05,9.9,1.06,19,14.39,20.52,29.63,1.51,15.24-5.7,26.45-16.27,25.08ZM608.36,41.5c-2.6-.32-4.53,2.52-4.27,6.34.26,3.82,2.64,7.21,5.29,7.55,2.65.34,4.54-2.51,4.24-6.35-.3-3.84-2.66-7.23-5.26-7.54Z"/>
      <path class="cls-3" d="M652.97,80.2c-10.16-.9-19.91-14.02-21.51-29.3-1.61-15.29,4.88-27.32,14.28-26.7,9.38.61,18.73,13.87,21.11,29.45,2.38,15.57-3.73,27.45-13.88,26.56ZM648.38,45.36c-2.46-.18-4.08,2.87-3.59,6.8s2.93,7.28,5.44,7.48,4.1-2.85,3.57-6.79c-.54-3.95-2.96-7.31-5.42-7.49Z"/>
    </g>
    <path class="cls-3" d="M1157.65-38.79c-29.86,18.86-56.21,52.31-89.66,55.35-32.43,4.05-40.54-43.58-38.51-71.96,1.01-19.26,12.16-39.53,30.41-46.62,47.64-16.22,91.22-54.73,142.91-43.58,18.24,4.05,2.03,29.39.76,45.06-1.43,20.67-21.69,48.01-45.9,61.76ZM1061.1-84.78c-12.37,7.08-21.49,21.27-18.45,36.47,2.03,17.23,5.07,52.7,24.32,43.58,50.68-23.31,124.66-48.65,117.57-118.58-1.01-10.14-15.2-8.11-22.82-4.41l-100.63,42.94Z"/>
    <g>
      <path class="cls-3" d="M972.45,718.12c16.68-13.61,10.49-23.89-12.73-30.84-2.23,5.14-7.82,10.9-8.18,15.6-15.69-8.1-50.85-28.86-67.8-19.3-33.91,19.12,19,39.89,53.41,53.71,9.4,3.87,25.88-4.24,27.57-9.06,3.02,3.34,9.08,5.51,10.44,9.16,2.12-2.1,8.15-4.43,12.63-6.62l-15.33-12.66ZM943.77,712.13c1.61,2.83-2.81,9.32-10.78,9.06-23.13-2.84-43.1-15.19-26.78-25.93,12.09,1.49,17.98,4.55,24.64,8.12l12.93,8.75Z"/>
      <g>
        <path class="cls-3" d="M1082.61,844.02c-46.8,10.99-100.52,61.67-140.05,32.28-22.3-17.23-16.22-57.77-20.27-88.18-5.07-47.64,65.88-64.87,107.43-76.02,39.53-10.14,76.02,21.28,90.36,59.99,8.11,29.3-11.47,62.22-37.47,71.92ZM953.13,773.32c-16.65,29-8.54,79.67,13.76,81.7,46.62,5.07,134.8-17.23,135.81-73.99,1.01-24.32-32.43-55.74-64.23-49.16l-85.34,41.45Z"/>
        <path class="cls-3" d="M1001.29,835.68c-14.33,5.76-26.69-2.86-30.89-18.56-4.21-15.7-.48-32.7,11.8-38.52,12.28-5.82,30.21,1.72,36.48,17.48,6.27,15.76-3.06,33.84-17.39,39.6ZM993.13,799.13c-6.31,5.06-5.85,11.07,2.5,15.08,10.24-3.6,6.24-7.3,6.28-10.53-1.41-4.01-5.45-6.04-8.78-4.55Z"/>
        <path class="cls-3" d="M1058.67,812.47c-14.08,5.72-28.01-3.03-34.6-18.83-6.37-15.73-4.39-32.68,8.04-38.41,12.45-5.74,31.99,1.86,40.12,17.64,8.14,15.78.51,33.89-13.56,39.6ZM1045.77,775.75c-5.08,5.49-4.89,11.61,5.16,15.11,8.39-4.06,4.99-7.27,4.55-10.51-1.92-4.02-6.38-6.06-9.71-4.6Z"/>
      </g>
    </g>
    <path class="cls-3" d="M878.93,907.63c18.73,1.83,35.99,8.78,54.05,11.28-3.39-53.54-28.29-61.93-54.47-53.38-5.47-46.74-22.5-90.86-48.48-114.93-28.64-21.53-65.64-23.81-101.29,5.13-14.76,12.58-12.94,46.7-5.96,62.98,25.2,61.69,78.28,64.6,118.15,78.09-3.4,4.41-4.14,11.13-6.56,17.1,13.13,8.25,27.33,13.01,39.93,22.16l4.63-28.45ZM844.74,857.93c-25.35-.06-82.01-5.73-64.93-58.8,10.73-32.18,42.69-8.74,56.15,10.87,3.8,6.12,7.25,13.43,8.19,23.29l.6,24.64Z"/>
    <g>
      <path class="cls-3" d="M-29.1,429.28c18.73,1.83,35.99,8.78,54.05,11.28-3.39-53.54-28.29-61.93-54.47-53.38-5.47-46.74-22.5-90.86-48.48-114.93-28.64-21.53-65.64-23.81-101.29,5.13-14.76,12.58-12.94,46.7-5.96,62.98,25.2,61.69,78.28,64.6,118.15,78.09-3.4,4.41-4.14,11.13-6.56,17.1,13.13,8.25,27.33,13.01,39.93,22.16l4.63-28.45ZM-63.29,379.58c-25.35-.06-82.01-5.73-64.93-58.8,10.73-32.18,42.69-8.74,56.15,10.87,3.8,6.12,7.25,13.43,8.19,23.29l.6,24.64Z"/>
      <g>
        <path class="cls-3" d="M-91.16,640.26c-142.13-66.22-292.13-88.52-448.22-123.99-34.46-8.11-78.04-29.39-71.96-68.92,14.19-97.3,124.66-122.64,210.82-108.45,173.31,29.39,339.53,64.87,472.31,185.48,36.49,32.43,64.87,78.04,52.7,128.72-10.14,44.6-64.87,32.43-98.26,24.03-37.45-6.06-79.17-18.55-117.38-36.87ZM-273.79,396.91c-57.81-16.45-119.64-29.63-179.44-11.38-34.46,11.15-64.87,35.47-77.03,69.93-3.04,7.09,4.05,12.16,9.12,13.18C-345.79,531.48-166.4,561.88.84,649.05c19.26,10.14,42.57,15.2,62.84,4.05,18.24-11.15,32.43-36.49,22.3-54.73-58.79-103.38-183.45-142.91-288.63-180.49-40.82-11.9-71.14-20.97-71.14-20.97Z"/>
        <path class="cls-3" d="M-95.58,580.15c-48.76-22.18-66.18-50-37.75-63.55,27.92-12.59,80.15-5.86,116.79,15.87,35.87,24.3,53.99,56.89,37.03,70.41-16.78,14.22-70.2,2.35-116.07-22.73ZM-38.47,555.56c-11.93-6.94-33.23-13.96-30-.08,4.4,16.85,29.06,20.27,39.07,17.33,5.35-3.06,1.21-10.89-9.06-17.25Z"/>
      </g>
    </g>
    <path class="cls-3" d="M61.15,898.01c20.88-8.86,47.23-10.89,59.4-31.16,6.08-10.14-2.03-24.32-4.05-36.49-17.23,11.15-36.49,15.2-53.72,25.34,8.11-42.57-19.26-99.33-63.85-96.29-37.5,3.04-48.65,51.69-57.77,85.14-7.09,24.32,9.12,46.62,26.35,63.85,17.23,16.22,40.54,7.09,59.8,2.03v24.32c11.15-2.03,22.3,0,33.34-2.51l.51-34.24ZM28.63,866.47c-13.49,12.54-41.87,15.58-49.98-1.65-10.14-20.27-2.03-46.62,19.26-54.73,19.26-7.09,35.47,13.18,31.86,31.6l-1.14,24.78Z"/>
    <path class="cls-3" d="M1224.4,879.29c13.28-26.85,16.75-68.63-2.3-62.33-4.3.67-8.09,22.73-12.84,34.85-12.22-28.59-21.72-63.25-43.9-61.61-3.52-.52-9.38,2.98-10.51,11.45-8.63,72.07,20.84,127.19,52.54,116.5,5.15-1.13,9.03-7.42,11.2-17,3.11,5.87,6.09,10.12,9.45,15.81,3.09-5.85,6.52-10.22,9.79-16.1l-13.42-21.57ZM1200.91,872.46c1.91,10.27-5.73,17.78-9.55,18.51-13.14.94-27.29-23.85-21.43-48.43,5.47-22.17,17.05,1.36,22.45,12.29l8.53,17.62Z"/>
    <g>
      <path class="cls-3" d="M1595.51,398.16c27.59,3.96,56.8,4.25,90.07.39-14.16-26.91-17.54-68.39-38.02-84.61-17.14-17.55-54.69.82-63.67-23.36-16.28-53.34-35.69-119.74-64.9-162.83-29.23-43.08-65.06-63.64-103.63-33.62-13.83,11.35-1.81,54.46,4.83,73.56,15.48,55.83,28.9,113.03,46.42,157.84,17.49,44.82,44.97,73.65,89.27,74.25-1.36,51.02,20.83,72.4,57.28,75.72l-17.66-77.34ZM1541.14,289.93c.5,3.45.14,6.08-.9,6.69-3.32,1.95-12.07,4.24-30.68-5.28-27.69-14.18-43.1-85.68-43.1-85.68-32.11-87.66,38.83-72.09,64.84,26.16l9.84,58.11Z"/>
      <path class="cls-3" d="M2204.45,795.94c-109.27,18.55-211.64,54.02-324.14,79.36-117.57,26.35-231.09-23.31-336.49-68.92-49.66-20.27-97.3-53.72-123.65-103.38-27.37-53.72-39.53-114.53-24.32-176.36,10.14-41.55,18.24-95.27,55.74-117.57,110.48,35.47,221.96,81.08,339.53,78.04,125.68-3.04,259.47-22.3,371.97,54.73,66.89,44.6,153.04,108.45,118.06,198.4-12.7,29.55-39.29,50.63-76.69,55.7ZM1465.12,538.04c-50.02,32.19-30.77,116.31-.36,149.76,84.12,91.22,197.64,161.15,329.4,137.84,137.84-25.34,261.49-62.84,393.25-100.34,33.45-10.14,29.39-54.73,7.09-78.04-81.08-85.14-189.53-123.65-306.09-108.45-92.23,12.16-181.42,17.23-272.15,13.08-88.97-5.76-151.15-13.85-151.15-13.85Z"/>
    </g>
  </g>
</svg>