<?xml version="1.0" encoding="UTF-8"?>
<svg id="Calque_2" data-name="Calque 2" xmlns="http://www.w3.org/2000/svg" viewBox="0 0 436.92 409.96">
  <defs>
    <style>
      .cls-1 {
        fill: #1a1f30;
        stroke-width: 0px;
      }
    </style>
  </defs>
  <g id="Calque_1-2" data-name="Calque 1">
    <g>
      <path class="cls-1" d="M334.8,141.17h-89.6v-24.41s.01-.03.02-.03l65.2-16.37s.03-.02.02-.04l-8.69-34.61s-.02-.03-.04-.02l-57,14.32s-.04-.01-.04-.03v-14.36h0c-.22-87.54-131.64-87.47-131.64.22.05,0-1.7,59.42,63.6,63.22,10.9.63,21.83-.57,32.42-3.23l.36-.09s.04.01.04.03v15.41h-107.32C45.81,141.17,0,186.98,0,243.29v64.54c0,56.31,45.81,102.12,102.12,102.12h232.67c56.31,0,102.12-45.81,102.12-102.12v-64.54c0-56.31-45.81-102.12-102.12-102.12ZM208.92,87.1c0,1.23-.73,2.34-1.87,2.81-3.61,1.51-12.85,4.3-31.19,3.75-27.26-.82-27.08-28.35-27.08-28.35.51-39.58,60.13-39.42,60.13.51v21.28ZM393.14,307.83c0,32.17-26.17,58.34-58.34,58.34H102.12c-32.17,0-58.34-26.17-58.34-58.34v-64.54c0-32.17,26.17-58.34,58.34-58.34h232.67c32.17,0,58.34,26.17,58.34,58.34v64.54Z"/>
      <path class="cls-1" d="M152.97,216.79c-32.4,0-58.77,26.36-58.77,58.77s26.36,58.77,58.77,58.77,58.77-26.36,58.77-58.77-26.36-58.77-58.77-58.77ZM152.97,290.55c-8.26,0-14.99-6.72-14.99-14.99s6.72-14.99,14.99-14.99,14.99,6.72,14.99,14.99-6.72,14.99-14.99,14.99Z"/>
      <path class="cls-1" d="M283.96,216.79c-32.4,0-58.77,26.36-58.77,58.77s26.36,58.77,58.77,58.77,58.77-26.36,58.77-58.77-26.36-58.77-58.77-58.77ZM283.96,290.55c-8.26,0-14.98-6.72-14.98-14.99s6.72-14.99,14.98-14.99,14.99,6.72,14.99,14.99-6.72,14.99-14.99,14.99Z"/>
    </g>
  </g>
</svg>