<?xml version="1.0" encoding="UTF-8"?>
<svg id="Calque_2" data-name="Calque 2" xmlns="http://www.w3.org/2000/svg" viewBox="0 0 589.09 271.31">
  <defs>
    <style>
      .cls-1 {
        fill: #1a1f30;
        stroke-width: 0px;
      }
    </style>
  </defs>
  <g id="Calque_1-2" data-name="Calque 1">
    <g>
      <path class="cls-1" d="M35.75,267.53s-.01.03-.03.03H.03s-.03-.01-.03-.03V64.63s.01-.03.03-.03h35.68"/>
      <path class="cls-1" d="M144.53,142.01h0c7.07,2.21,14.42,3.39,21.82,3.49l13.86.19s.03,121.84.03,121.84c0,.02-.01.03-.03.03h-35.68s-.03-.01-.03-.03v-21.36s-.04-.04-.06-.02c-10.01,15.2-26.98,25.16-44.94,25.16-28.25,0-45.25-19.5-45.25-49v-83.22l.03-.03,35.43,6.58c0,3.54.03,4.66.03,4.68v62.24c0,15.5,7.75,26.5,24.75,26.5,13.24,0,23.99-7.49,29.99-14.74,0,0,0-.01,0-.02"/>
      <path class="cls-1" d="M380.59,271.31c-39,0-67.75-29.25-67.75-68.75,0-37.25,29.25-67,67.25-67,43.24,0,66.24,35.73,66.25,72.47,0,.02-.02.03-.03.03h-102.18s-.04.02-.03.04c2.51,20.73,16.76,33.21,36.5,33.21,13.74,0,26.99-6.99,32.24-18.73,0-.01.02-.02.03-.02h31.69s.04.02.03.04c-6.76,29.98-33.25,48.71-63.99,48.71ZM346.14,188.06h65.91s.04-.02.03-.04c-4.01-14.72-15.25-23.71-31.74-23.71s-29.47,8.98-34.24,23.71c0,.02,0,.04.03.04Z"/>
      <path class="cls-1" d="M523.34,271.31c-39,0-67.75-29.25-67.75-68.75,0-37.25,29.25-67,67.25-67,43.24,0,66.24,35.73,66.25,72.47,0,.02-.02.03-.03.03h-102.18s-.04.02-.03.04c2.51,20.73,16.76,33.21,36.5,33.21,13.74,0,26.99-6.99,32.24-18.73,0-.01.02-.02.03-.02h31.69s.04.02.03.04c-6.76,29.98-33.25,48.71-63.99,48.71ZM488.89,188.06h65.91s.04-.02.03-.04c-4.01-14.72-15.25-23.71-31.74-23.71s-29.47,8.98-34.24,23.71c0,.02,0,.04.03.04Z"/>
      <path class="cls-1" d="M284.86,198.3l36.21-59.18s0-.05-.03-.05h-38.67s-.02,0-.03.02l-27.98,47.47s-.02.02-.03.02h-16.95s-.03-.01-.03-.03v-69.77s.01-.03.02-.03l65.2-16.37s.03-.02.02-.04l-8.69-34.61s-.02-.03-.04-.02l-57,14.32s-.04-.01-.04-.03v-14.36h0c-.22-87.54-131.64-87.47-131.64.22.05,0-1.7,59.42,63.6,63.22,10.9.63,21.83-.57,32.42-3.23l.36-.09s.04.01.04.03v141.78s.01.03.03.03h35.68s.03-.01.03-.03v-52.68s.01-.03.03-.03h17.95s.02,0,.03.02l28.48,52.72s.02.02.03.02h39.67s.04-.03.03-.05l-38.71-69.18s0-.02,0-.03ZM201.07,87.1c0,1.23-.73,2.34-1.87,2.81-3.61,1.51-12.85,4.3-31.18,3.75-27.26-.82-27.08-28.35-27.08-28.35.51-39.58,60.13-39.42,60.13.51v21.28Z"/>
    </g>
  </g>
</svg>